<svg width="1083" height="191" viewBox="0 0 1083 191" fill="none" xmlns="http://www.w3.org/2000/svg">
<g filter="url(#filter0_ddiii_13_2820)">
<g clip-path="url(#clip0_13_2820)">
<rect x="11" width="169" height="169" rx="42.25" fill="#163152"/>
<rect width="169" height="169" transform="translate(11)" fill="url(#paint0_linear_13_2820)"/>
<g filter="url(#filter1_d_13_2820)">
<path d="M148.289 82.9621C147.475 54.5058 124.152 31.6875 95.4987 31.6875C86.4245 31.6875 77.8849 33.976 70.4254 38.0074L148.289 82.9621Z" fill="url(#paint1_linear_13_2820)"/>
<path d="M63 42.8677C60.8142 44.5764 58.7664 46.4535 56.8761 48.4795L146.017 99.945C146.818 97.3211 147.42 94.6106 147.807 91.8308L63 42.8677Z" fill="url(#paint2_linear_13_2820)"/>
<path d="M134.122 120.52C132.232 122.546 130.184 124.423 127.998 126.131L43.1911 77.168C43.5771 74.3882 44.1796 71.6777 44.9808 69.0539L134.122 120.52Z" fill="url(#paint3_linear_13_2820)"/>
<path d="M139.131 114.264L47.8998 61.5918C49.0528 59.2004 50.3807 56.9092 51.8669 54.7348L143.098 107.407C141.945 109.799 140.617 112.09 139.131 114.264Z" fill="url(#paint4_linear_13_2820)"/>
<path d="M95.4987 137.312C104.573 137.312 113.113 135.024 120.573 130.992L42.7081 86.0365C43.5212 114.493 66.8451 137.312 95.4987 137.312Z" fill="url(#paint5_linear_13_2820)"/>
</g>
</g>
<rect x="14.5208" y="3.52083" width="161.958" height="161.958" rx="38.7292" stroke="url(#paint6_linear_13_2820)" stroke-width="7.04167"/>
</g>
<path d="M255.76 65L234.8 7.40002H246L259.92 45.4L273.84 7.40002H284.16L298.08 45.4L311.92 7.40002H323.2L302.24 65H293.92L278.96 24.2L264.08 65H255.76Z" fill="#163152"/>
<path d="M330.937 65V7.40002H383.977V18.04H341.577V30.84H375.657V41.56H341.577V54.36H383.977V65H330.937Z" fill="#163152"/>
<path d="M392.267 65V7.40002H436.427C438.454 7.40002 440.294 7.90669 441.947 8.92002C443.654 9.93336 445.014 11.2934 446.027 13C447.04 14.6534 447.547 16.4934 447.547 18.52V29.8C447.547 30.4934 447.494 31.16 447.387 31.8C447.28 32.44 447.094 33.0534 446.827 33.64C447.734 34.8667 448.454 36.1467 448.987 37.48C449.574 38.8134 449.867 40.1467 449.867 41.48V53.88C449.867 55.9067 449.36 57.7734 448.347 59.48C447.334 61.1334 445.974 62.4667 444.267 63.48C442.56 64.4934 440.694 65 438.667 65H392.267ZM403.787 54.36H438.187C438.454 54.36 438.694 54.28 438.907 54.12C439.12 53.9067 439.227 53.6667 439.227 53.4V41.96C439.227 41.6934 439.12 41.48 438.907 41.32C438.694 41.1067 438.454 41 438.187 41H403.787C403.52 41 403.28 41.1067 403.067 41.32C402.907 41.48 402.827 41.6934 402.827 41.96V53.4C402.827 53.6667 402.907 53.9067 403.067 54.12C403.28 54.28 403.52 54.36 403.787 54.36ZM403.787 30.36H435.947C436.214 30.36 436.427 30.28 436.587 30.12C436.747 29.9067 436.827 29.6667 436.827 29.4V19C436.827 18.7334 436.747 18.52 436.587 18.36C436.427 18.1467 436.214 18.04 435.947 18.04H403.787C403.52 18.04 403.28 18.1467 403.067 18.36C402.907 18.52 402.827 18.7334 402.827 19V29.4C402.827 29.6667 402.907 29.9067 403.067 30.12C403.28 30.28 403.52 30.36 403.787 30.36Z" fill="#163152"/>
<path d="M236.64 165V107.4H283.04C285.067 107.4 286.933 107.907 288.64 108.92C290.347 109.933 291.707 111.293 292.72 113C293.733 114.653 294.24 116.493 294.24 118.52V153.88C294.24 155.907 293.733 157.773 292.72 159.48C291.707 161.133 290.347 162.467 288.64 163.48C286.933 164.493 285.067 165 283.04 165H236.64ZM248.08 154.36H282.56C282.827 154.36 283.067 154.28 283.28 154.12C283.493 153.907 283.6 153.667 283.6 153.4V119C283.6 118.733 283.493 118.52 283.28 118.36C283.067 118.147 282.827 118.04 282.56 118.04H248.08C247.813 118.04 247.573 118.147 247.36 118.36C247.2 118.52 247.12 118.733 247.12 119V153.4C247.12 153.667 247.2 153.907 247.36 154.12C247.573 154.28 247.813 154.36 248.08 154.36Z" fill="#163152"/>
<path d="M302.079 165V107.4H312.559V165H302.079Z" fill="#163152"/>
<path d="M320.468 165V118.52C320.468 116.493 320.975 114.653 321.988 113C323.001 111.293 324.335 109.933 325.988 108.92C327.695 107.907 329.561 107.4 331.588 107.4H366.868C368.895 107.4 370.761 107.907 372.468 108.92C374.175 109.933 375.535 111.293 376.548 113C377.561 114.653 378.068 116.493 378.068 118.52V165H367.428V145.64H331.028V165H320.468ZM331.028 135.08H367.428V119C367.428 118.733 367.321 118.52 367.108 118.36C366.895 118.147 366.655 118.04 366.388 118.04H331.988C331.721 118.04 331.481 118.147 331.268 118.36C331.108 118.52 331.028 118.733 331.028 119V135.08Z" fill="#163152"/>
<path d="M398.303 165C396.276 165 394.41 164.493 392.703 163.48C391.05 162.467 389.716 161.133 388.703 159.48C387.69 157.773 387.183 155.907 387.183 153.88V118.52C387.183 116.493 387.69 114.653 388.703 113C389.716 111.293 391.05 109.933 392.703 108.92C394.41 107.907 396.276 107.4 398.303 107.4H433.583C435.61 107.4 437.476 107.907 439.183 108.92C440.89 109.933 442.25 111.293 443.263 113C444.276 114.653 444.783 116.493 444.783 118.52V123H434.143V119C434.143 118.733 434.036 118.52 433.823 118.36C433.61 118.147 433.37 118.04 433.103 118.04H398.703C398.436 118.04 398.196 118.147 397.983 118.36C397.823 118.52 397.743 118.733 397.743 119V153.4C397.743 153.667 397.823 153.907 397.983 154.12C398.196 154.28 398.436 154.36 398.703 154.36H433.103C433.37 154.36 433.61 154.28 433.823 154.12C434.036 153.907 434.143 153.667 434.143 153.4V143H421.103V132.36H444.783V153.88C444.783 155.907 444.276 157.773 443.263 159.48C442.25 161.133 440.89 162.467 439.183 163.48C437.476 164.493 435.61 165 433.583 165H398.303Z" fill="#163152"/>
<path d="M453.589 165V107.4H465.189L500.549 149.48V107.4H511.189V165H499.589L464.149 122.84V165H453.589Z" fill="#163152"/>
<path d="M531.112 165C529.085 165 527.219 164.493 525.512 163.48C523.859 162.467 522.525 161.133 521.512 159.48C520.499 157.773 519.992 155.907 519.992 153.88V118.52C519.992 116.493 520.499 114.653 521.512 113C522.525 111.293 523.859 109.933 525.512 108.92C527.219 107.907 529.085 107.4 531.112 107.4H566.472C568.499 107.4 570.339 107.907 571.992 108.92C573.699 109.933 575.059 111.293 576.072 113C577.085 114.653 577.592 116.493 577.592 118.52V153.88C577.592 155.907 577.085 157.773 576.072 159.48C575.059 161.133 573.699 162.467 571.992 163.48C570.339 164.493 568.499 165 566.472 165H531.112ZM531.512 154.36H565.912C566.179 154.36 566.419 154.28 566.632 154.12C566.845 153.907 566.952 153.667 566.952 153.4V119C566.952 118.733 566.845 118.52 566.632 118.36C566.419 118.147 566.179 118.04 565.912 118.04H531.512C531.245 118.04 531.005 118.147 530.792 118.36C530.632 118.52 530.552 118.733 530.552 119V153.4C530.552 153.667 530.632 153.907 530.792 154.12C531.005 154.28 531.245 154.36 531.512 154.36Z" fill="#163152"/>
<path d="M597.282 165C595.255 165 593.389 164.493 591.682 163.48C590.029 162.467 588.695 161.133 587.682 159.48C586.669 157.773 586.162 155.907 586.162 153.88V149.48H596.722V153.4C596.722 153.667 596.802 153.907 596.962 154.12C597.175 154.28 597.415 154.36 597.682 154.36H632.162C632.429 154.36 632.642 154.28 632.802 154.12C633.015 153.907 633.122 153.667 633.122 153.4V142.44C633.122 142.173 633.015 141.96 632.802 141.8C632.642 141.64 632.429 141.56 632.162 141.56H597.282C595.255 141.56 593.389 141.053 591.682 140.04C590.029 139.027 588.695 137.693 587.682 136.04C586.669 134.333 586.162 132.44 586.162 130.36V118.52C586.162 116.493 586.669 114.653 587.682 113C588.695 111.293 590.029 109.933 591.682 108.92C593.389 107.907 595.255 107.4 597.282 107.4H632.642C634.669 107.4 636.509 107.907 638.162 108.92C639.869 109.933 641.229 111.293 642.242 113C643.255 114.653 643.762 116.493 643.762 118.52V122.92H633.122V119C633.122 118.733 633.015 118.52 632.802 118.36C632.642 118.147 632.429 118.04 632.162 118.04H597.682C597.415 118.04 597.175 118.147 596.962 118.36C596.802 118.52 596.722 118.733 596.722 119V129.96C596.722 130.227 596.802 130.44 596.962 130.6C597.175 130.76 597.415 130.84 597.682 130.84H632.642C634.669 130.84 636.509 131.347 638.162 132.36C639.869 133.373 641.229 134.733 642.242 136.44C643.255 138.093 643.762 139.96 643.762 142.04V153.88C643.762 155.907 643.255 157.773 642.242 159.48C641.229 161.133 639.869 162.467 638.162 163.48C636.509 164.493 634.669 165 632.642 165H597.282Z" fill="#163152"/>
<path d="M673.136 165V118.04H649.616V107.4H707.216V118.04H683.776V165H673.136Z" fill="#163152"/>
<path d="M712.079 165V107.4H722.559V165H712.079Z" fill="#163152"/>
<path d="M741.428 165C739.401 165 737.535 164.493 735.828 163.48C734.175 162.467 732.841 161.133 731.828 159.48C730.815 157.773 730.308 155.907 730.308 153.88V118.52C730.308 116.493 730.815 114.653 731.828 113C732.841 111.293 734.175 109.933 735.828 108.92C737.535 107.907 739.401 107.4 741.428 107.4H787.748V118.04H743.668C742.815 118.04 742.121 118.28 741.588 118.76C741.108 119.24 740.868 119.933 740.868 120.84V151.56C740.868 152.413 741.108 153.107 741.588 153.64C742.121 154.12 742.815 154.36 743.668 154.36H787.748V165H741.428Z" fill="#163152"/>
<path d="M806.969 165C804.943 165 803.076 164.493 801.369 163.48C799.716 162.467 798.383 161.133 797.369 159.48C796.356 157.773 795.849 155.907 795.849 153.88V149.48H806.409V153.4C806.409 153.667 806.489 153.907 806.649 154.12C806.863 154.28 807.103 154.36 807.369 154.36H841.849C842.116 154.36 842.329 154.28 842.489 154.12C842.703 153.907 842.809 153.667 842.809 153.4V142.44C842.809 142.173 842.703 141.96 842.489 141.8C842.329 141.64 842.116 141.56 841.849 141.56H806.969C804.943 141.56 803.076 141.053 801.369 140.04C799.716 139.027 798.383 137.693 797.369 136.04C796.356 134.333 795.849 132.44 795.849 130.36V118.52C795.849 116.493 796.356 114.653 797.369 113C798.383 111.293 799.716 109.933 801.369 108.92C803.076 107.907 804.943 107.4 806.969 107.4H842.329C844.356 107.4 846.196 107.907 847.849 108.92C849.556 109.933 850.916 111.293 851.929 113C852.943 114.653 853.449 116.493 853.449 118.52V122.92H842.809V119C842.809 118.733 842.703 118.52 842.489 118.36C842.329 118.147 842.116 118.04 841.849 118.04H807.369C807.103 118.04 806.863 118.147 806.649 118.36C806.489 118.52 806.409 118.733 806.409 119V129.96C806.409 130.227 806.489 130.44 806.649 130.6C806.863 130.76 807.103 130.84 807.369 130.84H842.329C844.356 130.84 846.196 131.347 847.849 132.36C849.556 133.373 850.916 134.733 851.929 136.44C852.943 138.093 853.449 139.96 853.449 142.04V153.88C853.449 155.907 852.943 157.773 851.929 159.48C850.916 161.133 849.556 162.467 847.849 163.48C846.196 164.493 844.356 165 842.329 165H806.969Z" fill="#163152"/>
<path d="M886.716 165V107.4H897.276V130.84H935.036V107.4H945.596V165H935.036V141.56H897.276V165H886.716Z" fill="#163152"/>
<path d="M965.643 165C963.616 165 961.75 164.493 960.043 163.48C958.39 162.467 957.056 161.133 956.043 159.48C955.03 157.773 954.523 155.907 954.523 153.88V107.4H965.083V153.4C965.083 153.667 965.163 153.907 965.323 154.12C965.536 154.28 965.776 154.36 966.043 154.36H1000.44C1000.71 154.36 1000.95 154.28 1001.16 154.12C1001.38 153.907 1001.48 153.667 1001.48 153.4V107.4H1012.12V153.88C1012.12 155.907 1011.62 157.773 1010.6 159.48C1009.59 161.133 1008.23 162.467 1006.52 163.48C1004.87 164.493 1003.03 165 1001 165H965.643Z" fill="#163152"/>
<path d="M1021.17 165V107.4H1065.33C1067.36 107.4 1069.2 107.907 1070.85 108.92C1072.56 109.933 1073.92 111.293 1074.93 113C1075.95 114.653 1076.45 116.493 1076.45 118.52V129.8C1076.45 130.493 1076.4 131.16 1076.29 131.8C1076.19 132.44 1076 133.053 1075.73 133.64C1076.64 134.867 1077.36 136.147 1077.89 137.48C1078.48 138.813 1078.77 140.147 1078.77 141.48V153.88C1078.77 155.907 1078.27 157.773 1077.25 159.48C1076.24 161.133 1074.88 162.467 1073.17 163.48C1071.47 164.493 1069.6 165 1067.57 165H1021.17ZM1032.69 154.36H1067.09C1067.36 154.36 1067.6 154.28 1067.81 154.12C1068.03 153.907 1068.13 153.667 1068.13 153.4V141.96C1068.13 141.693 1068.03 141.48 1067.81 141.32C1067.6 141.107 1067.36 141 1067.09 141H1032.69C1032.43 141 1032.19 141.107 1031.97 141.32C1031.81 141.48 1031.73 141.693 1031.73 141.96V153.4C1031.73 153.667 1031.81 153.907 1031.97 154.12C1032.19 154.28 1032.43 154.36 1032.69 154.36ZM1032.69 130.36H1064.85C1065.12 130.36 1065.33 130.28 1065.49 130.12C1065.65 129.907 1065.73 129.667 1065.73 129.4V119C1065.73 118.733 1065.65 118.52 1065.49 118.36C1065.33 118.147 1065.12 118.04 1064.85 118.04H1032.69C1032.43 118.04 1032.19 118.147 1031.97 118.36C1031.81 118.52 1031.73 118.733 1031.73 119V129.4C1031.73 129.667 1031.81 129.907 1031.97 130.12C1032.19 130.28 1032.43 130.36 1032.69 130.36Z" fill="#163152"/>
<defs>
<filter id="filter0_ddiii_13_2820" x="0.4375" y="-10.5625" width="190.125" height="200.687" filterUnits="userSpaceOnUse" color-interpolation-filters="sRGB">
<feFlood flood-opacity="0" result="BackgroundImageFix"/>
<feColorMatrix in="SourceAlpha" type="matrix" values="0 0 0 0 0 0 0 0 0 0 0 0 0 0 0 0 0 0 127 0" result="hardAlpha"/>
<feOffset dy="3.52083"/>
<feGaussianBlur stdDeviation="1.76042"/>
<feComposite in2="hardAlpha" operator="out"/>
<feColorMatrix type="matrix" values="0 0 0 0 0.162923 0 0 0 0 0.162923 0 0 0 0 0.162923 0 0 0 0.08 0"/>
<feBlend mode="normal" in2="BackgroundImageFix" result="effect1_dropShadow_13_2820"/>
<feColorMatrix in="SourceAlpha" type="matrix" values="0 0 0 0 0 0 0 0 0 0 0 0 0 0 0 0 0 0 127 0" result="hardAlpha"/>
<feMorphology radius="3.52083" operator="erode" in="SourceAlpha" result="effect2_dropShadow_13_2820"/>
<feOffset dy="10.5625"/>
<feGaussianBlur stdDeviation="7.04167"/>
<feComposite in2="hardAlpha" operator="out"/>
<feColorMatrix type="matrix" values="0 0 0 0 0.164706 0 0 0 0 0.164706 0 0 0 0 0.164706 0 0 0 0.14 0"/>
<feBlend mode="normal" in2="effect1_dropShadow_13_2820" result="effect2_dropShadow_13_2820"/>
<feBlend mode="normal" in="SourceGraphic" in2="effect2_dropShadow_13_2820" result="shape"/>
<feColorMatrix in="SourceAlpha" type="matrix" values="0 0 0 0 0 0 0 0 0 0 0 0 0 0 0 0 0 0 127 0" result="hardAlpha"/>
<feOffset dy="-10.5625"/>
<feGaussianBlur stdDeviation="5.28125"/>
<feComposite in2="hardAlpha" operator="arithmetic" k2="-1" k3="1"/>
<feColorMatrix type="matrix" values="0 0 0 0 0 0 0 0 0 0 0 0 0 0 0 0 0 0 0.1 0"/>
<feBlend mode="normal" in2="shape" result="effect3_innerShadow_13_2820"/>
<feColorMatrix in="SourceAlpha" type="matrix" values="0 0 0 0 0 0 0 0 0 0 0 0 0 0 0 0 0 0 127 0" result="hardAlpha"/>
<feOffset dy="10.5625"/>
<feGaussianBlur stdDeviation="5.28125"/>
<feComposite in2="hardAlpha" operator="arithmetic" k2="-1" k3="1"/>
<feColorMatrix type="matrix" values="0 0 0 0 1 0 0 0 0 1 0 0 0 0 1 0 0 0 0.1 0"/>
<feBlend mode="normal" in2="effect3_innerShadow_13_2820" result="effect4_innerShadow_13_2820"/>
<feColorMatrix in="SourceAlpha" type="matrix" values="0 0 0 0 0 0 0 0 0 0 0 0 0 0 0 0 0 0 127 0" result="hardAlpha"/>
<feMorphology radius="3.52083" operator="erode" in="SourceAlpha" result="effect5_innerShadow_13_2820"/>
<feOffset/>
<feComposite in2="hardAlpha" operator="arithmetic" k2="-1" k3="1"/>
<feColorMatrix type="matrix" values="0 0 0 0 0 0 0 0 0 0 0 0 0 0 0 0 0 0 0.2 0"/>
<feBlend mode="normal" in2="effect4_innerShadow_13_2820" result="effect5_innerShadow_13_2820"/>
</filter>
<filter id="filter1_d_13_2820" x="32.125" y="18.4844" width="126.75" height="147.875" filterUnits="userSpaceOnUse" color-interpolation-filters="sRGB">
<feFlood flood-opacity="0" result="BackgroundImageFix"/>
<feColorMatrix in="SourceAlpha" type="matrix" values="0 0 0 0 0 0 0 0 0 0 0 0 0 0 0 0 0 0 127 0" result="hardAlpha"/>
<feMorphology radius="5.28125" operator="erode" in="SourceAlpha" result="effect1_dropShadow_13_2820"/>
<feOffset dy="7.92188"/>
<feGaussianBlur stdDeviation="7.92188"/>
<feComposite in2="hardAlpha" operator="out"/>
<feColorMatrix type="matrix" values="0 0 0 0 0.141176 0 0 0 0 0.141176 0 0 0 0 0.141176 0 0 0 0.1 0"/>
<feBlend mode="normal" in2="BackgroundImageFix" result="effect1_dropShadow_13_2820"/>
<feBlend mode="normal" in="SourceGraphic" in2="effect1_dropShadow_13_2820" result="shape"/>
</filter>
<linearGradient id="paint0_linear_13_2820" x1="84.5" y1="2.09858e-06" x2="91.5417" y2="169" gradientUnits="userSpaceOnUse">
<stop stop-color="white" stop-opacity="0"/>
<stop offset="1" stop-color="white" stop-opacity="0.12"/>
</linearGradient>
<linearGradient id="paint1_linear_13_2820" x1="95.4987" y1="31.6875" x2="95.4987" y2="137.312" gradientUnits="userSpaceOnUse">
<stop stop-color="white" stop-opacity="0.8"/>
<stop offset="1" stop-color="white" stop-opacity="0.5"/>
</linearGradient>
<linearGradient id="paint2_linear_13_2820" x1="95.4987" y1="31.6875" x2="95.4987" y2="137.312" gradientUnits="userSpaceOnUse">
<stop stop-color="white" stop-opacity="0.8"/>
<stop offset="1" stop-color="white" stop-opacity="0.5"/>
</linearGradient>
<linearGradient id="paint3_linear_13_2820" x1="95.4987" y1="31.6875" x2="95.4987" y2="137.312" gradientUnits="userSpaceOnUse">
<stop stop-color="white" stop-opacity="0.8"/>
<stop offset="1" stop-color="white" stop-opacity="0.5"/>
</linearGradient>
<linearGradient id="paint4_linear_13_2820" x1="95.4987" y1="31.6875" x2="95.4987" y2="137.312" gradientUnits="userSpaceOnUse">
<stop stop-color="white" stop-opacity="0.8"/>
<stop offset="1" stop-color="white" stop-opacity="0.5"/>
</linearGradient>
<linearGradient id="paint5_linear_13_2820" x1="95.4987" y1="31.6875" x2="95.4987" y2="137.312" gradientUnits="userSpaceOnUse">
<stop stop-color="white" stop-opacity="0.8"/>
<stop offset="1" stop-color="white" stop-opacity="0.5"/>
</linearGradient>
<linearGradient id="paint6_linear_13_2820" x1="95.5" y1="0" x2="95.5" y2="169" gradientUnits="userSpaceOnUse">
<stop stop-color="white" stop-opacity="0.12"/>
<stop offset="1" stop-color="white" stop-opacity="0"/>
</linearGradient>
<clipPath id="clip0_13_2820">
<rect x="11" width="169" height="169" rx="42.25" fill="white"/>
</clipPath>
</defs>
</svg>
