<svg width="485" height="90" viewBox="0 0 485 90" fill="none" xmlns="http://www.w3.org/2000/svg">
<rect width="485" height="90" rx="10" fill="#AD0000"/>
<g clip-path="url(#clip0_202_2)">
<path d="M42.4979 28.3104C42.4979 31.2267 42.4979 33.7774 42.4979 36.5129C39.378 36.6791 39.2745 38.1331 38.9222 39.6514C37.8525 44.2605 37.7827 49.0109 39.3961 53.5681C39.6522 54.293 40.7695 55.1695 41.4956 55.1737C55.147 55.2755 68.8005 55.2858 82.454 55.1799C83.2184 55.1737 84.3921 54.1476 84.6644 53.3437C86.2657 48.5892 86.1689 43.7558 84.8983 38.9057C84.4547 37.2129 83.7387 36.4921 81.8671 36.5171C73.0519 36.6396 64.2366 36.5711 55.2096 36.5711C55.2096 33.8417 55.2096 31.0896 55.2096 28.3083C56.1171 28.3083 56.7403 28.3104 57.4905 28.3083C67.2597 28.2979 77.0309 28.3582 86.7981 28.2502C88.5507 28.2315 89.4421 28.865 90.1802 30.373C95.3371 40.8998 95.2544 51.3622 90.0532 61.8495C89.313 63.343 88.3712 63.7625 86.8022 63.7563C70.2022 63.7002 53.6002 63.7023 37.0002 63.7563C35.5098 63.7605 34.685 63.291 33.9972 61.9222C28.7738 51.5553 28.6931 41.1823 33.6342 30.6825C34.5095 28.8214 37.0989 28.3104 37.7646 28.3104C38.5188 28.3104 38.8425 28.3125 39.4788 28.3104C40.4277 28.3073 41.4198 28.3104 42.4979 28.3104Z" fill="white"/>
<path d="M79.2131 25.3588C75.0545 25.3588 75.7805 25.5665 75.0545 24.8624C71.6462 21.5569 62.0665 20.4735 55.1995 22.3615C53.5558 22.8123 52.8177 23.4957 52.8761 25.4378C53.0335 30.7593 52.9306 36.0913 52.9306 41.6579C61.5523 41.6579 69.9057 41.6641 78.8057 41.6641C78.8057 44.1567 78.8057 50.1803 78.8057 50.1803C78.8057 50.1803 77.258 50.1803 76.4864 50.1803C70.1336 50.1803 62.845 50.199 56.0142 50.199C55.0845 50.199 53.8442 50.1803 52.7894 50.1803C52.7894 51.3227 52.7753 51.9459 52.7753 52.9034C50.2039 52.9034 47.4995 52.8806 44.7224 52.8806C44.7224 52.0497 44.7264 51.3684 44.7244 50.5978C44.7123 40.8021 44.7909 31.0065 44.6578 21.2129C44.6256 18.8035 45.4746 17.5551 47.5075 16.556C57.2828 11.76 66.9653 11.8368 76.6982 16.6827C78.5677 17.6133 79.2131 19.8125 79.2131 20.9699C79.2131 22.1273 79.2131 23.1875 79.2131 25.3588Z" fill="white"/>
<path d="M45.1257 73.5253V65.9664H52.7894V77.1828L45.1257 73.5253Z" fill="white"/>
</g>
<path d="M117.12 26.4H140.928V31.92H123.648V41.232H138.624V46.752H123.648V60H117.12V26.4ZM151.559 26.4H157.511L169.799 60H163.175L160.439 52.56H148.631L145.895 60H139.271L151.559 26.4ZM158.999 47.184L154.535 34.416H154.439L150.119 47.184H158.999ZM199.583 48.864V60H193.055V50.352L190.175 47.136H179.711V60H173.183V26.4H194.255L199.391 31.584V41.76L196.127 45.072L199.583 48.864ZM179.711 41.76H191.279L192.959 40.08V33.552L191.279 31.872H179.711V41.76ZM205.573 54.24V26.4H212.101V51.984L214.549 54.432H223.957L226.405 51.984V26.4H232.933V54.24L227.173 60H211.333L205.573 54.24ZM239.183 26.4H245.711V40.464H250.799L258.911 26.4H266.255L256.415 43.152L267.071 60H259.583L250.751 46.032H245.711V60H239.183V26.4ZM283.046 54.48V31.92L288.566 26.4H305.846L311.366 31.92V54.48L305.846 60H288.566L283.046 54.48ZM302.39 54.432L304.838 51.984V34.416L302.39 31.968H292.022L289.574 34.416V51.984L292.022 54.432H302.39ZM343.536 48.864V60H337.008V50.352L334.128 47.136H323.664V60H317.136V26.4H338.208L343.344 31.584V41.76L340.08 45.072L343.536 48.864ZM323.664 41.76H335.232L336.912 40.08V33.552L335.232 31.872H323.664V41.76ZM349.766 26.4H356.294V60H349.766V26.4ZM362.792 26.4H383.864L389 31.584V43.344L383.816 48.576H369.32V60H362.792V26.4ZM380.888 43.104L382.568 41.424V33.552L380.888 31.872H369.32V43.104H380.888ZM393.343 54.48V31.92L398.863 26.4H416.143L421.663 31.92V54.48L416.143 60H398.863L393.343 54.48ZM412.687 54.432L415.135 51.984V34.416L412.687 31.968H402.319L399.871 34.416V51.984L402.319 54.432H412.687ZM424.089 26.4H430.809L439.161 52.224H439.257L447.609 26.4H454.329L442.377 60H436.041L424.089 26.4Z" fill="white"/>
<defs>
<clipPath id="clip0_202_2">
<rect width="64" height="64" fill="white" transform="translate(30 13)"/>
</clipPath>
</defs>
</svg>
